<?xml version="1.0" standalone="no"?>
<!DOCTYPE svg PUBLIC "-//W3C//DTD SVG 20010904//EN"
 "http://www.w3.org/TR/2001/REC-SVG-20010904/DTD/svg10.dtd">
<svg version="1.0" xmlns="http://www.w3.org/2000/svg"
 width="1368.000000pt" height="896.000000pt" viewBox="0 0 1368.000000 896.000000"
 preserveAspectRatio="xMidYMid meet">

<g transform="translate(0.000000,896.000000) scale(0.100000,-0.100000)"
fill="#000000" stroke="none">
<path d="M3647 5842 l-97 -97 0 -475 0 -475 98 -98 97 -97 400 0 400 0 98 98
97 97 0 308 0 307 -320 0 -320 0 0 -140 0 -140 150 0 150 0 0 -120 0 -120
-255 0 -255 0 0 380 0 380 248 0 248 0 54 -55 54 -55 123 0 123 0 0 103 0 102
-98 98 -97 97 -400 0 -400 0 -98 -98z"/>
<path d="M5118 5836 l-98 -103 0 -566 0 -567 170 0 170 0 0 190 0 190 245 0
245 0 0 -190 0 -190 170 0 170 0 0 568 0 567 -103 103 -102 102 -385 -1 -385
-1 -97 -102z m732 -376 l0 -190 -245 0 -245 0 0 190 0 190 245 0 245 0 0 -190z"/>
<path d="M6460 5270 l0 -670 170 0 170 0 0 383 1 382 120 -232 120 -233 87 0
87 0 115 226 115 226 3 -376 2 -376 170 0 170 0 0 670 0 670 -171 -2 -170 -3
-155 -295 c-86 -162 -159 -298 -163 -302 -4 -5 -79 129 -166 297 l-160 305
-172 0 -173 0 0 -670z"/>
<path d="M8030 5810 l0 -130 50 0 50 0 0 -410 0 -410 -50 0 -50 0 0 -130 0
-130 275 0 275 0 0 130 0 130 -55 0 -55 0 0 410 0 410 55 0 55 0 0 130 0 130
-275 0 -275 0 0 -130z"/>
<path d="M8820 5270 l0 -670 170 0 170 0 2 374 3 374 260 -374 259 -374 153 0
153 0 0 670 0 670 -170 0 -170 0 -2 -377 -3 -377 -264 377 -265 377 -148 0
-148 0 0 -670z"/>
<path d="M10362 5837 l-102 -102 0 -465 1 -465 99 -102 100 -103 397 0 398 0
102 102 103 103 0 302 0 303 -325 0 -325 0 0 -140 0 -140 155 0 155 0 0 -120
0 -120 -260 0 -260 0 0 380 0 380 248 0 248 0 54 -55 54 -55 128 0 128 0 0 98
0 97 -103 103 -102 102 -395 0 -395 0 -103 -103z"/>
<path d="M2220 4525 l0 -716 363 3 362 3 34 24 c63 45 61 25 61 746 l0 655
-410 0 -410 0 0 -715z m800 85 c0 -670 1 -653 -60 -685 -24 -13 -85 -15 -375
-15 l-345 0 0 655 0 655 390 0 390 0 0 -610z m-5 -693 c-4 -14 -20 -38 -36
-53 l-30 -29 -355 -3 -354 -3 0 31 0 30 345 0 c361 0 379 2 415 45 17 20 23
14 15 -18z"/>
<path d="M2280 4865 l0 -316 304 3 c290 3 306 4 332 24 69 51 69 49 72 340 l3
264 -355 0 -356 0 0 -315z m690 58 c0 -266 -4 -287 -69 -330 -33 -23 -39 -23
-317 -23 l-284 0 0 295 0 295 335 0 335 0 0 -237z"/>
<path d="M2360 4885 l0 -245 270 0 270 0 0 245 0 245 -270 0 -270 0 0 -245z
m520 0 l0 -225 -250 0 -250 0 0 225 0 225 250 0 250 0 0 -225z"/>
<path d="M2880 4460 c-43 -43 -13 -130 44 -130 30 0 66 43 66 77 0 29 -42 73
-70 73 -11 0 -29 -9 -40 -20z m75 -20 c37 -41 -24 -97 -63 -58 -18 18 -15 55
6 67 25 15 37 13 57 -9z"/>
<path d="M2372 4458 c-7 -7 -12 -27 -12 -45 0 -32 -1 -33 -41 -33 l-40 0 3
-42 c3 -42 4 -43 40 -46 35 -3 37 -5 40 -40 3 -34 6 -37 33 -37 27 0 30 3 33
38 3 35 5 37 36 37 40 0 59 19 54 57 -3 24 -8 29 -43 33 -37 5 -40 7 -43 40
-5 46 -33 65 -60 38z m46 -56 c3 -42 3 -42 43 -42 28 0 39 -4 39 -15 0 -11
-11 -15 -39 -15 -40 0 -40 0 -43 -42 -2 -30 -8 -43 -18 -43 -10 0 -16 13 -18
43 -3 42 -3 42 -43 42 -28 0 -39 4 -39 15 0 11 11 15 40 15 40 0 40 0 40 38 0
68 33 71 38 4z"/>
<path d="M2736 4398 c-25 -35 -20 -83 10 -107 15 -12 32 -21 39 -21 7 0 24 9
39 21 52 41 25 129 -39 129 -24 0 -39 -7 -49 -22z m82 -10 c29 -29 -7 -86 -47
-73 -26 8 -38 50 -21 70 15 18 51 20 68 3z"/>
<path d="M2504 4166 c-3 -8 -4 -27 -2 -43 3 -27 5 -28 63 -28 l60 0 0 40 0 40
-58 3 c-43 2 -59 -1 -63 -12z m106 -21 c0 -11 -12 -15 -45 -15 -33 0 -45 4
-45 15 0 11 12 15 45 15 33 0 45 -4 45 -15z"/>
<path d="M2647 4174 c-4 -4 -7 -25 -7 -46 l0 -39 63 3 62 3 0 40 0 40 -55 3
c-31 2 -59 0 -63 -4z m101 -26 c-3 -7 -23 -14 -46 -16 -33 -2 -42 0 -42 12 0
12 11 16 46 16 32 0 44 -4 42 -12z"/>
<path d="M2930 4110 c0 -5 5 -10 10 -10 6 0 10 5 10 10 0 6 -4 10 -10 10 -5 0
-10 -4 -10 -10z"/>
<path d="M2970 4110 c0 -5 5 -10 10 -10 6 0 10 5 10 10 0 6 -4 10 -10 10 -5 0
-10 -4 -10 -10z"/>
<path d="M2860 4069 c0 -5 5 -7 10 -4 6 3 10 8 10 11 0 2 -4 4 -10 4 -5 0 -10
-5 -10 -11z"/>
<path d="M2930 4070 c0 -5 5 -10 10 -10 6 0 10 5 10 10 0 6 -4 10 -10 10 -5 0
-10 -4 -10 -10z"/>
<path d="M2970 4070 c0 -5 5 -10 10 -10 6 0 10 5 10 10 0 6 -4 10 -10 10 -5 0
-10 -4 -10 -10z"/>
<path d="M2820 4000 c0 -5 5 -10 10 -10 6 0 10 5 10 10 0 6 -4 10 -10 10 -5 0
-10 -4 -10 -10z"/>
<path d="M2860 3999 c0 -5 5 -7 10 -4 6 3 10 8 10 11 0 2 -4 4 -10 4 -5 0 -10
-5 -10 -11z"/>
<path d="M2895 4000 c3 -5 8 -10 11 -10 2 0 4 5 4 10 0 6 -5 10 -11 10 -5 0
-7 -4 -4 -10z"/>
<path d="M2930 4000 c0 -5 5 -10 10 -10 6 0 10 5 10 10 0 6 -4 10 -10 10 -5 0
-10 -4 -10 -10z"/>
<path d="M2970 4000 c0 -5 5 -10 10 -10 6 0 10 5 10 10 0 6 -4 10 -10 10 -5 0
-10 -4 -10 -10z"/>
<path d="M2820 3960 c0 -5 5 -10 10 -10 6 0 10 5 10 10 0 6 -4 10 -10 10 -5 0
-10 -4 -10 -10z"/>
<path d="M2860 3960 c0 -5 5 -10 10 -10 6 0 10 5 10 10 0 6 -4 10 -10 10 -5 0
-10 -4 -10 -10z"/>
<path d="M2930 3960 c0 -5 5 -10 10 -10 6 0 10 5 10 10 0 6 -4 10 -10 10 -5 0
-10 -4 -10 -10z"/>
<path d="M3550 4255 c0 -74 4 -86 197 -595 l198 -520 165 0 165 0 198 523
c189 503 197 526 197 595 l0 72 -142 0 -143 0 -134 -385 c-74 -212 -138 -385
-141 -385 -3 0 -67 172 -141 383 l-136 382 -141 3 -142 3 0 -76z"/>
<path d="M4820 4215 l0 -115 50 0 50 0 0 -365 0 -365 -50 0 -50 0 0 -115 0
-115 250 0 250 0 0 115 0 115 -50 0 -50 0 0 365 0 365 50 0 50 0 0 115 0 115
-250 0 -250 0 0 -115z"/>
<path d="M5530 3822 l0 -507 88 -88 87 -87 393 0 392 0 0 125 0 125 -325 0
-325 0 0 470 0 470 -155 0 -155 0 0 -508z"/>
<path d="M6680 3817 l0 -512 83 -83 82 -82 393 0 392 0 0 125 0 125 -325 0
-325 0 0 470 0 470 -150 0 -150 0 0 -513z"/>
<path d="M7907 4242 l-87 -87 0 -508 0 -507 150 0 150 0 0 165 0 165 220 0
220 0 0 -165 0 -165 155 0 155 0 0 508 0 507 -88 88 -87 87 -350 0 -350 0 -88
-88z m653 -342 l0 -170 -220 0 -220 0 0 170 0 170 220 0 220 0 0 -170z"/>
<path d="M9207 4242 l-87 -87 0 -425 0 -425 83 -83 82 -82 370 0 370 0 83 83
82 82 0 278 0 277 -290 0 -290 0 0 -130 0 -130 140 0 140 0 0 -105 0 -105
-235 0 -235 0 0 340 0 340 228 0 228 0 44 -45 44 -45 113 0 113 0 0 88 0 87
-88 88 -87 87 -360 0 -360 0 -88 -88z"/>
<path d="M10440 3823 l0 -508 87 -87 86 -88 423 0 424 0 0 125 0 125 -355 0
-355 0 0 105 0 105 305 0 305 0 0 130 0 130 -305 0 -305 0 0 105 0 105 355 0
355 0 0 130 0 130 -510 0 -510 0 0 -507z"/>
</g>
</svg>
