<?xml version="1.0" standalone="no"?>
<!DOCTYPE svg PUBLIC "-//W3C//DTD SVG 20010904//EN"
 "http://www.w3.org/TR/2001/REC-SVG-20010904/DTD/svg10.dtd">
<svg version="1.0" xmlns="http://www.w3.org/2000/svg"
 width="1040.000000pt" height="500.000000pt" viewBox="0 0 1040.000000 500.000000"
 preserveAspectRatio="xMidYMid meet">

<g transform="translate(0.000000,500.000000) scale(0.100000,-0.100000)"
fill="#000000" stroke="none">
<path d="M0 2500 l0 -2500 5200 0 5200 0 0 2500 0 2500 -5200 0 -5200 0 0
-2500z m9814 1108 c53 -16 118 -81 134 -134 9 -31 12 -254 12 -923 0 -964 3
-921 -58 -984 -15 -16 -45 -39 -67 -50 l-40 -22 -4590 0 c-4505 0 -4591 0
-4629 19 -51 26 -102 80 -118 125 -10 28 -13 224 -13 926 l0 890 22 42 c26 48
85 100 128 112 17 5 2001 10 4604 10 3592 1 4583 -2 4615 -11z"/>
<path d="M4750 2560 l0 -610 306 0 c270 0 309 2 335 17 60 35 59 27 59 642 l0
561 -350 0 -350 0 0 -610z m690 48 c-1 -440 -4 -558 -15 -584 -25 -61 -41 -64
-370 -64 l-295 0 0 25 0 24 304 3 c290 3 306 4 332 24 15 11 30 27 32 35 3 8
-10 1 -27 -16 l-32 -30 -305 -3 -304 -3 0 570 0 571 340 0 341 0 -1 -552z"/>
<path d="M4800 2850 l0 -270 238 0 c130 0 253 5 273 10 19 6 46 22 60 36 24
25 24 28 27 260 l3 234 -300 0 -301 0 0 -270z m590 39 l0 -221 -34 -34 -34
-34 -256 0 -256 0 0 255 0 255 290 0 290 0 0 -221z"/>
<path d="M4870 2865 l0 -205 230 0 230 0 0 205 0 205 -230 0 -230 0 0 -205z
m450 0 l0 -195 -220 0 -220 0 0 195 0 195 220 0 220 0 0 -195z"/>
<path d="M5322 2504 c-32 -22 -30 -78 3 -100 23 -15 27 -15 50 0 33 22 35 78
3 100 -12 9 -25 16 -28 16 -3 0 -16 -7 -28 -16z m66 -32 c4 -28 -14 -52 -38
-52 -26 0 -43 26 -36 55 6 22 11 26 39 23 25 -2 33 -8 35 -26z"/>
<path d="M4883 2503 c-7 -2 -13 -20 -13 -39 0 -32 -2 -34 -36 -34 -34 0 -35
-1 -32 -32 3 -29 7 -33 35 -36 28 -3 32 -7 35 -35 2 -27 7 -32 28 -32 21 0 26
5 28 32 3 28 7 32 35 35 28 3 32 7 32 33 0 27 -4 30 -32 33 -28 3 -33 7 -33
31 0 15 -5 32 -12 39 -13 13 -16 13 -35 5z m37 -48 c0 -33 2 -35 35 -35 24 0
35 -5 35 -15 0 -10 -10 -15 -34 -15 -33 0 -35 -2 -38 -37 -2 -26 -8 -38 -18
-38 -10 0 -16 12 -18 38 -3 35 -5 37 -38 37 -24 0 -34 5 -34 15 0 10 11 15 35
15 33 0 35 2 35 35 0 28 4 35 20 35 16 0 20 -7 20 -35z"/>
<path d="M5197 2452 c-20 -22 -22 -73 -5 -90 7 -7 24 -12 38 -12 36 0 50 17
50 62 0 54 -49 78 -83 40z m54 -2 c23 -13 25 -52 4 -70 -12 -10 -21 -10 -40
-2 -30 14 -34 56 -7 71 21 13 20 13 43 1z"/>
<path d="M4990 2225 l0 -35 50 0 50 0 0 35 0 35 -50 0 -50 0 0 -35z m90 10 c0
-11 -11 -15 -40 -15 -29 0 -40 4 -40 15 0 11 11 15 40 15 29 0 40 -4 40 -15z"/>
<path d="M5110 2225 l0 -35 50 0 50 0 0 35 0 35 -50 0 -50 0 0 -35z m90 10 c0
-11 -11 -15 -40 -15 -29 0 -40 4 -40 15 0 11 11 15 40 15 29 0 40 -4 40 -15z"/>
<path d="M1031 2890 c-39 -9 -77 -35 -105 -74 -20 -25 -21 -43 -24 -244 -2
-210 -1 -218 20 -256 34 -59 94 -87 190 -87 102 -1 150 14 187 56 40 46 51 90
51 208 l0 97 -120 0 -120 0 0 -55 0 -55 55 0 c52 0 55 -2 55 -24 0 -44 -19
-76 -55 -93 -32 -15 -40 -16 -78 -3 -59 21 -69 57 -65 227 3 123 5 133 27 157
51 54 171 23 171 -45 l0 -29 66 0 67 0 -7 56 c-11 95 -47 140 -131 163 -45 12
-133 13 -184 1z m190 -71 c27 -13 45 -32 55 -54 17 -40 18 -55 4 -55 -5 0 -10
8 -10 18 0 26 -27 60 -63 79 -44 23 -146 22 -182 -1 -46 -30 -55 -69 -55 -247
0 -226 17 -254 150 -254 112 0 144 30 156 148 l7 66 -67 3 c-90 4 -85 23 7 23
l72 0 -2 -78 c-5 -141 -44 -182 -175 -182 -88 1 -120 17 -150 76 -15 28 -18
61 -18 199 0 191 12 234 71 263 49 24 149 22 200 -4z"/>
<path d="M3980 2888 c-52 -15 -90 -46 -111 -92 -16 -35 -19 -67 -19 -226 0
-102 5 -201 10 -220 11 -41 61 -94 104 -110 17 -6 68 -11 114 -11 102 0 159
23 194 79 20 32 23 53 27 160 l3 122 -121 0 -121 0 0 -55 0 -55 55 0 55 0 0
-34 c0 -22 -9 -45 -24 -63 -20 -23 -32 -28 -71 -28 -39 0 -51 5 -71 28 -23 27
-24 34 -24 183 0 151 1 156 25 179 19 20 34 25 73 25 58 0 92 -26 92 -70 l0
-30 65 0 65 0 0 40 c0 47 -22 105 -52 138 -42 44 -180 65 -268 40z m185 -62
c19 -8 44 -30 55 -48 21 -35 26 -68 10 -68 -5 0 -10 9 -10 21 0 11 -13 33 -28
49 -77 76 -236 54 -261 -37 -6 -21 -11 -105 -11 -188 0 -172 11 -208 70 -237
42 -22 118 -23 165 -4 48 20 67 55 73 136 l5 69 -67 3 c-90 4 -85 23 7 23 l72
0 -1 -80 c-1 -136 -41 -179 -169 -180 -79 0 -117 15 -149 58 -18 25 -21 45
-24 169 -5 183 2 240 35 279 15 17 36 35 47 39 34 14 144 11 181 -4z"/>
<path d="M8645 2891 c-121 -31 -150 -105 -143 -366 3 -147 6 -164 28 -205 37
-66 90 -90 200 -90 178 1 230 63 230 275 l0 85 -120 0 -120 0 0 -55 0 -55 55
0 c52 0 55 -1 55 -25 0 -69 -61 -116 -128 -99 -59 15 -72 52 -72 212 0 180 11
202 106 202 53 0 94 -33 94 -75 0 -24 2 -25 66 -25 l66 0 -7 53 c-16 116 -77
169 -205 173 -41 2 -88 0 -105 -5z m180 -67 c37 -17 58 -44 69 -86 10 -42 -9
-34 -26 11 -21 53 -64 75 -146 74 -69 -1 -106 -19 -129 -64 -17 -32 -18 -358
-1 -393 16 -37 52 -57 112 -63 63 -7 114 8 147 43 20 21 24 38 27 100 l4 74
-66 0 c-52 0 -66 3 -66 15 0 12 15 15 75 15 l75 0 0 -82 c0 -92 -16 -132 -67
-165 -37 -24 -165 -25 -209 -1 -55 30 -64 65 -64 257 0 194 8 228 62 261 42
25 154 28 203 4z"/>
<path d="M1666 2873 c-19 -62 -166 -620 -166 -630 0 -9 19 -13 60 -13 l59 0
11 43 c6 23 16 57 21 75 l11 33 76 -3 76 -3 19 -72 20 -73 59 0 c49 0 58 3 58
18 0 9 -38 157 -84 327 l-83 310 -66 3 c-56 2 -66 0 -71 -15z m158 -295 c43
-145 81 -269 83 -275 3 -7 1 -13 -4 -13 -5 0 -20 34 -33 75 l-24 75 -111 0
-111 0 -22 -75 c-12 -41 -26 -75 -32 -75 -5 0 -7 6 -5 13 2 6 36 122 75 257
39 135 73 253 76 263 14 46 34 1 108 -245z"/>
<path d="M1685 2649 c-26 -90 -50 -170 -53 -176 -3 -10 21 -13 103 -13 97 0
106 2 101 18 -3 9 -26 85 -51 167 -25 83 -47 154 -48 159 -2 6 -25 -64 -52
-155z m75 -68 c11 -37 20 -71 20 -75 0 -3 -20 -6 -45 -6 -25 0 -45 2 -45 4 0
1 4 16 10 32 5 16 14 48 20 72 6 23 13 42 15 42 2 0 13 -31 25 -69z"/>
<path d="M2140 2560 l0 -330 60 0 60 0 0 192 c0 106 4 188 8 183 5 -6 28 -84
52 -175 24 -91 47 -173 52 -182 6 -13 21 -18 48 -18 36 0 40 3 48 33 42 148
96 325 103 337 5 9 9 -67 9 -178 l0 -193 58 3 57 3 3 328 2 327 -73 0 -72 0
-69 -207 c-38 -115 -72 -201 -75 -193 -3 8 -30 101 -62 205 l-56 190 -77 3
-76 3 0 -331z m195 30 l82 -245 82 248 83 247 34 0 34 0 0 -274 c0 -173 -4
-277 -10 -281 -7 -4 -10 87 -10 264 0 252 -1 271 -18 271 -14 0 -34 -51 -102
-252 -47 -139 -89 -252 -95 -250 -5 1 -47 115 -93 252 -57 170 -88 250 -98
250 -12 0 -14 -43 -14 -264 0 -166 -4 -267 -10 -271 -7 -4 -10 90 -10 275 l0
281 32 -3 31 -3 82 -245z"/>
<path d="M2912 2563 l3 -328 60 0 60 0 3 328 2 327 -65 0 -65 0 2 -327z m68
-4 c0 -184 -3 -278 -10 -274 -6 4 -10 106 -10 274 0 236 3 281 17 281 2 0 3
-126 3 -281z"/>
<path d="M3250 2560 l0 -330 60 0 60 0 0 167 c0 91 3 163 8 159 4 -4 39 -78
77 -164 l71 -157 59 0 60 0 3 328 2 327 -65 0 -65 0 0 -162 c-1 -189 4 -191
-87 24 l-58 138 -62 0 -63 0 0 -330z m190 34 l125 -245 3 245 c1 153 6 246 12
246 6 0 10 -104 10 -282 0 -155 -3 -278 -7 -274 -4 4 -65 118 -135 254 l-127
247 -1 -247 c0 -153 -4 -249 -10 -253 -7 -4 -10 90 -10 274 0 155 3 281 8 281
4 0 63 -111 132 -246z"/>
<path d="M5910 2884 c0 -14 160 -609 170 -632 9 -21 15 -23 71 -20 l62 3 59
220 c32 121 71 268 87 328 l29 107 -62 0 -62 0 -53 -199 c-30 -110 -57 -205
-61 -211 -4 -6 -31 83 -62 197 l-54 208 -62 3 c-34 2 -62 0 -62 -4z m120 -206
c28 -90 66 -208 84 -262 l32 -99 79 262 c43 143 83 261 87 261 4 0 8 -4 8 -9
0 -20 -159 -534 -168 -543 -15 -15 -22 2 -107 276 -42 137 -79 255 -82 262 -3
8 0 14 6 14 5 0 33 -73 61 -162z"/>
<path d="M6552 2563 l3 -328 60 0 60 0 3 328 2 327 -65 0 -65 0 2 -327z m65
-145 c-1 -79 -3 -15 -3 142 0 157 2 221 3 143 2 -79 2 -207 0 -285z"/>
<path d="M6890 2560 l0 -330 173 2 172 3 3 58 3 57 -116 0 -115 0 0 270 0 270
-60 0 -60 0 0 -330z m70 10 l0 -270 115 0 c72 0 115 -4 115 -10 0 -7 -43 -10
-122 -8 l-123 3 -3 278 c-1 182 1 277 8 277 6 0 10 -94 10 -270z"/>
<path d="M7402 2563 l3 -328 173 -3 172 -2 0 60 0 60 -110 0 -110 0 0 270 0
270 -65 0 -65 0 2 -327z m78 1 l0 -264 116 0 c74 0 113 -4 109 -10 -4 -6 -57
-10 -126 -10 l-119 0 0 281 c0 184 3 278 10 274 6 -4 10 -105 10 -271z"/>
<path d="M8047 2883 c-6 -10 -164 -600 -169 -628 -3 -18 3 -20 57 -20 l60 0
20 73 20 72 77 0 77 0 11 -42 c29 -112 26 -108 85 -108 30 0 56 4 59 8 3 5
-34 153 -81 330 l-87 322 -62 0 c-35 0 -65 -3 -67 -7z m155 -309 c43 -142 78
-266 78 -273 0 -30 -19 5 -37 69 l-19 65 -112 3 -111 3 -21 -73 c-21 -71 -40
-108 -40 -78 0 16 149 529 157 543 15 24 34 -24 105 -259z"/>
<path d="M8057 2637 c-26 -90 -47 -166 -47 -170 0 -4 45 -7 100 -7 55 0 100 4
100 8 0 15 -92 317 -98 324 -4 4 -28 -66 -55 -155z m80 -59 l19 -73 -39 -3
c-21 -2 -41 -1 -44 2 -7 6 30 146 38 146 3 0 15 -33 26 -72z"/>
<path d="M9152 2563 l3 -328 173 -3 172 -2 0 60 0 60 -110 0 -110 0 0 80 0 80
85 0 85 0 0 60 0 60 -85 0 -85 0 0 70 0 70 110 0 110 0 0 60 0 60 -175 0 -175
0 2 -327z m303 267 c-4 -6 -55 -10 -121 -10 l-114 0 0 -120 0 -120 95 0 c57 0
95 -4 95 -10 0 -6 -38 -10 -95 -10 l-95 0 0 -130 0 -130 122 0 c84 0 119 -3
112 -10 -7 -7 -57 -10 -130 -8 l-119 3 -3 278 -2 277 130 0 c85 0 129 -4 125
-10z"/>
</g>
</svg>
